<svg viewBox="0 0 200 200" xmlns="http://www.w3.org/2000/svg">
  <path fill="#3D9830" d="M17.5,-31.5C25.8,-25.5,38,-27.2,46.5,-23.3C55,-19.3,59.9,-9.6,65.1,3C70.3,15.6,75.8,31.3,73,45.1C70.2,59,59.1,71.1,45.5,78.8C32,86.5,16,89.9,4.5,82.1C-6.9,74.2,-13.9,55.1,-27,47.2C-40.2,39.2,-59.5,42.4,-72.2,36.4C-84.8,30.4,-90.7,15.2,-84.3,3.7C-77.9,-7.8,-59.2,-15.6,-44.3,-17.7C-29.5,-19.9,-18.5,-16.5,-11.8,-23.5C-5,-30.4,-2.5,-47.8,1,-49.5C4.6,-51.3,9.1,-37.5,17.5,-31.5Z" transform="translate(100 100)" />
</svg>